<?xml version="1.0" standalone="no"?><!DOCTYPE svg PUBLIC "-//W3C//DTD SVG 1.1//EN" "http://www.w3.org/Graphics/SVG/1.1/DTD/svg11.dtd"><svg width="128px" height="128px" version="1.1" xmlns="http://www.w3.org/2000/svg" xmlns:xlink="http://www.w3.org/1999/xlink" xml:space="preserve" style="fill-rule:evenodd;clip-rule:evenodd;stroke-linejoin:round;stroke-miterlimit:1.41421;"><g><rect x="0" y="0" width="128" height="128" style="fill:#2a8fbd;"/><path d="M157.957,91.434l-181.505,-12.692l-5.026,71.866l181.505,12.692l5.026,-71.866Z" style="fill:#242424;"/><path d="M100.794,56.666l-24.316,-1.793l-3.374,5.173l-12.578,-53.227l-9.38,59.059l-12.797,-31.169l-1.996,22.293l-40.354,1.858l-4.713,3.371l50.056,2.305l14.181,30.662l6.687,-43.05l7.729,29.377l10.898,-17.289l19.852,-0.515c1.421,4.382 5.537,7.55 10.392,7.55c6.033,0 10.924,-4.891 10.924,-10.924c0,-6.033 -4.891,-10.923 -10.924,-10.923c-4.741,0 -8.777,3.02 -10.287,7.242Z" style="fill:#fff;"/><g><path d="M13.746,122.897c-2.221,0 -4.672,-1.302 -6.107,-2.718l3.23,-3.983c0.867,0.728 2.502,1.876 3.766,1.876c1.455,0 2.651,-0.918 2.914,-2.412c0.52,-2.949 -8.83,-4.212 -7.601,-11.181c0.763,-4.327 4.617,-6.855 8.752,-6.855c2.68,0 5.397,1.532 6.634,3.638l-3.678,2.834c-0.736,-1.034 -2.21,-1.8 -3.588,-1.8c-1.111,0 -2.3,0.881 -2.502,2.029c-0.649,3.676 8.942,3.791 7.606,11.373c-0.804,4.557 -5.176,7.199 -9.426,7.199Z" style="fill:#fff;fill-rule:nonzero;"/><path d="M35.417,103.215l-3.369,19.108l-5.668,0l3.408,-19.108l-4.519,0l0.885,-5.017l14.704,0l-0.885,5.017l-4.556,0Z" style="fill:#fff;fill-rule:nonzero;"/><path d="M48.603,102.985l-1.493,0l-1.161,6.586c0.362,0.115 0.987,0.269 1.369,0.269c2.183,0 3.667,-1.685 4.032,-3.753c0.398,-2.259 -0.526,-3.102 -2.747,-3.102ZM49.865,122.323l-4.679,-8.424l-1.486,8.424l-5.705,0l4.254,-24.125l6.318,0c5.284,0 9.618,1.915 8.558,7.927c-0.54,3.064 -2.853,5.974 -5.921,7.084l3.9,6.548l-0.452,2.566l-4.787,0Z" style="fill:#fff;fill-rule:nonzero;"/><path d="M56.136,122.323l4.254,-24.125l13.976,0l-0.864,4.902l-8.271,0l-0.743,4.212l6.357,0l-0.878,4.978l-6.357,0l-0.891,5.055l8.692,0l-0.877,4.978l-14.398,0Z" style="fill:#fff;fill-rule:nonzero;"/><path d="M84.002,105.512l-3.096,7.353l3.599,0l-0.503,-7.353ZM84.675,122.323l-0.347,-4.978l-4.825,0l-2.103,4.978l-5.936,0l10.994,-24.125l5.629,0l2.524,24.125l-5.936,0Z" style="fill:#fff;fill-rule:nonzero;"/><path d="M110.402,122.323l1.863,-10.569l0.82,-2.91l-6.934,13.479l-4.403,0l-2.181,-13.479l-0.168,2.91l-1.863,10.569l-5.706,0l4.253,-24.125l6.204,0l2.775,14.667c0.2,1.034 0.129,2.527 0.129,2.527c0,0 0.454,-1.493 1.02,-2.527l7.908,-14.667l6.242,0l-4.254,24.125l-5.705,0Z" style="fill:#fff;fill-rule:nonzero;"/></g></g></svg>