<?xml version="1.0" standalone="no"?><!DOCTYPE svg PUBLIC "-//W3C//DTD SVG 1.1//EN" "http://www.w3.org/Graphics/SVG/1.1/DTD/svg11.dtd"><svg width="100%" height="100%" viewBox="0 0 772 250" version="1.1" xmlns="http://www.w3.org/2000/svg" xmlns:xlink="http://www.w3.org/1999/xlink" xml:space="preserve" style="fill-rule:evenodd;clip-rule:evenodd;stroke-linejoin:round;stroke-miterlimit:1.41421;"><rect x="0" y="0" width="772" height="250" style="fill:#2a8fbd;"/><g><path d="M223.89,164.647c-6.997,0 -14.718,-4.102 -19.239,-8.565l10.174,-12.547c2.732,2.292 7.885,5.911 11.866,5.911c4.585,0 8.352,-2.895 9.181,-7.6c1.638,-9.29 -27.819,-13.271 -23.948,-35.227c2.405,-13.632 14.545,-21.595 27.574,-21.595c8.444,0 17.004,4.825 20.9,11.461l-11.587,8.928c-2.321,-3.258 -6.962,-5.671 -11.305,-5.671c-3.498,0 -7.245,2.775 -7.884,6.394c-2.042,11.582 28.175,11.944 23.963,35.83c-2.531,14.357 -16.304,22.681 -29.695,22.681Z" style="fill:#fff;fill-rule:nonzero;"/><path d="M292.163,102.638l-10.614,60.199l-17.855,0l10.735,-60.199l-14.235,0l2.787,-15.805l46.325,0l-2.787,15.805l-14.356,0Z" style="fill:#fff;fill-rule:nonzero;"/><path d="M333.708,101.914l-4.706,0l-3.658,20.75c1.142,0.362 3.109,0.844 4.314,0.844c6.876,0 11.553,-5.308 12.702,-11.822c1.255,-7.118 -1.655,-9.772 -8.652,-9.772ZM337.683,162.837l-14.742,-26.541l-4.681,26.541l-17.975,0l13.402,-76.004l19.905,0c16.649,0 30.301,6.032 26.962,24.973c-1.702,9.652 -8.988,18.82 -18.653,22.319l12.287,20.63l-1.425,8.082l-15.08,0Z" style="fill:#fff;fill-rule:nonzero;"/><path d="M357.44,162.837l13.4,-76.004l44.034,0l-2.723,15.443l-26.058,0l-2.341,13.27l20.027,0l-2.766,15.683l-20.026,0l-2.808,15.925l27.385,0l-2.765,15.683l-45.359,0Z" style="fill:#fff;fill-rule:nonzero;"/><path d="M445.23,109.876l-9.755,23.163l11.34,0l-1.585,-23.163ZM447.352,162.837l-1.095,-15.683l-15.201,0l-6.626,15.683l-18.699,0l34.635,-76.004l17.734,0l7.951,76.004l-18.699,0Z" style="fill:#fff;fill-rule:nonzero;"/><path d="M528.403,162.837l5.87,-33.297l2.582,-9.168l-21.843,42.465l-13.874,0l-6.87,-42.465l-0.53,9.168l-5.87,33.297l-17.975,0l13.4,-76.004l19.543,0l8.744,46.206c0.631,3.257 0.404,7.962 0.404,7.962c0,0 1.433,-4.705 3.215,-7.962l24.915,-46.206l19.664,0l-13.4,76.004l-17.975,0Z" style="fill:#fff;fill-rule:nonzero;"/><path d="M129.213,129.967l21.863,-1.612l3.034,4.652l11.31,-47.859l8.433,53.102l11.507,-28.026l1.794,20.045l36.285,1.671l4.238,3.031l-45.008,2.073l-12.751,27.57l-6.013,-38.709l-6.949,26.415l-9.799,-15.546l-17.85,-0.464c-1.278,3.94 -4.978,6.789 -9.344,6.789c-5.425,0 -9.822,-4.397 -9.822,-9.822c0,-5.424 4.397,-9.822 9.822,-9.822c4.263,0 7.892,2.716 9.25,6.512Z" style="fill:#fff;"/><path d="M642.579,136.2l-17.736,-0.183l-12.281,20.027l-2.641,-29.604l-30.581,38.536l-2.916,-34.171l-3.83,6.86l-18.308,-0.624l0.98,-4.677l13.452,-1.782l13.542,-21.514l3.608,33.986l32.03,-40.276l-0.878,32.765l4.572,-6.431l20.941,1.944c1.102,-4.22 4.94,-7.334 9.504,-7.334c5.425,0 9.822,4.398 9.822,9.822c0,5.425 -4.397,9.822 -9.822,9.822c-4.504,0 -8.3,-3.031 -9.458,-7.166Z" style="fill:#fff;"/></g></svg>