<?xml version="1.0" encoding="utf-8"?>
<!-- Generator: Adobe Illustrator 15.0.2, SVG Export Plug-In . SVG Version: 6.00 Build 0)  -->
<!DOCTYPE svg PUBLIC "-//W3C//DTD SVG 1.1//EN" "http://www.w3.org/Graphics/SVG/1.1/DTD/svg11.dtd">
<svg version="1.1" xmlns="http://www.w3.org/2000/svg" xmlns:xlink="http://www.w3.org/1999/xlink" x="0px" y="0px"
	 width="299.585px" height="301.51px" viewBox="0 0 299.585 301.51" enable-background="new 0 0 299.585 301.51"
	 xml:space="preserve">
<g id="Layer_2">
	<rect x="-5.652" y="-7.021" fill="#363B3F" stroke="#000000" stroke-miterlimit="10" width="311" height="316"/>
</g>
<g id="Layer_1">
	<path fill="#FFFFFF" d="M248.979,151.404c-12.387,0-22.942,7.859-26.95,18.859l-11.42-0.14c-14.153-0.421-26.899-0.79-33.931-0.988
		l-3.913-20.462l-5.052-27.189l-5.152-27.17l-13.685-72.175l-9.045,73.028l-4.281,34.568l-4.067,34.595l-3.014,26.815
		l-15.231-37.041l-14.184-34.492l-3.325,36.749l-1.278,14.116c-10.674,0.365-21.35,0.735-32.024,1.188
		c-13.317,0.575-94.763,6.265-108.079,7.031l7.917,4.398c13.316,0.768,86.845,2.32,100.162,2.893
		c13.315,0.563,26.629,1.054,39.945,1.482l3.572,0.115l4.352,12.136c4.726,13.011,9.416,26.035,14.236,39.009l14.949,40.227
		l5.763-42.797l4.649-34.523l4.423-34.279l2.702,12.62l5.957,27.01l7.79,35.326l11.303-33.856l6.886-20.621h32.418
		c3.382,12.069,14.46,20.925,27.606,20.925c15.84,0,28.679-12.842,28.679-28.68C277.657,164.246,264.818,151.404,248.979,151.404z"
		/>
</g>
</svg>
