<svg xmlns="http://www.w3.org/2000/svg" viewBox="0 0 1024 1024" fill="currentcolor">
	<path d="M903.115 515.413c-49.392 0-91.474 31.337-107.46 75.203l-124.411-1.532c-11.377-.346-22.751-.689-34.129-.998l-.241.574-22.436-.278-.153-.92-15.056-82.933-20.146-108.405-20.544-108.337L503.982 0l-53.141 429.013-16.214 137.935-12.016 106.924-117.286-285.22-18.353 202.81c-42.562 1.454-85.127 2.934-127.688 4.738-53.097 2.292-106.187 4.473-159.284 7.536v42.042c53.097 3.06 106.187 5.247 159.284 7.533 53.093 2.245 106.18 4.194 159.273 5.903l14.24.465 17.351 48.39c18.842 51.874 37.542 103.806 56.765 155.541L466.52 1024l41.512-308.293 17.633-136.685 10.776 50.329 54.815 248.544 72.516-217.217h129.261c13.493 48.121 57.655 83.429 110.075 83.429 63.16 0 114.352-51.205 114.352-114.348 0-63.139-51.189-114.345-114.349-114.345l.004-.001Z" />
</svg>
